:SAMPLES-PER-SECOND 30
:FULLY-SPECIFIED
:DEGREES
1156
root  -13.9108 35.0595 -3.59045 64.6511 -87.6636 -38.8689
RightUpLeg  -77.8186 -19.6714 21.7029
RightLeg  43.4916 -6.15855 -6.70627
RightFoot  -7.25922 -0.347283 7.86437
RightToes  2.91037e-010 0 -3.6325e-017
Spine  71.7981 -4.89689 10.1725
Spine1  11.9191 5.54713 -8.82044
HEad  -55.232 -5.11646 1.36231
LeftShoulder1  0.250978 -27.8866 8.70697
LeftArm  -80.1322 -64.7594 44.8351
LeftForeArm  54.2604 -1.27413 -1.29996
LeftHand  -0.244104 0.0205437 5.32207
RightShoulder  0.291379 12.9986 -7.58415
RightArm  -67.9027 63.4757 -30.7604
RightForeArm  22.087 0.97773 1.96959
RightHand  -4.79145 13.0098 -29.8801
LeftUpLeg  -53.0602 12.0788 -19.3106
LeftLeg  58.542 11.0775 19.2636
LeftFoot  -28.5416 0.653823 3.20011
LeftToes  -1.10052e-010 1.3781e-010 -2.1811e-011
1157
root  -15.6848 35.0763 -3.53396 31.6168 -88.5143 -4.94822
RightUpLeg  -77.8307 -21.8461 32.7108
RightLeg  32.9251 -0.268897 -0.347168
RightFoot  -4.98292 -0.492073 8.7352
RightToes  2.91037e-010 0 -3.6325e-017
Spine  71.2888 -4.65556 9.37511
Spine1  12.6139 5.15667 -8.53713
HEad  -54.5725 -4.5218 1.84555
LeftShoulder1  -0.18906 -27.6154 10.294
LeftArm  -79.839 -64.085 44.1947
LeftForeArm  53.1847 -1.17311 -0.880988
LeftHand  -0.244104 0.0205437 5.32207
RightShoulder  0.374808 13.1803 -7.0384
RightArm  -69.4789 62.7704 -33.7429
RightForeArm  21.9063 1.4314 2.0936
RightHand  -4.4545 12.199 -29.1146
LeftUpLeg  -50.8867 12.7745 -20.2142
LeftLeg  58.9235 10.29 18.2979
LeftFoot  -29.1662 0.186506 0.0840698
LeftToes  -1.10052e-010 1.3781e-010 -2.1811e-011
1158
root  -17.4215 34.9953 -3.54532 -32.9664 -88.4286 59.7901
RightUpLeg  -76.5845 -21.8876 36.4907
RightLeg  29.6952 2.24139 1.1721
RightFoot  -1.85913 0.0818444 -1.10009
RightToes  2.91037e-010 0 -3.6325e-017
Spine  71.1862 -4.47903 8.82328
Spine1  12.6716 4.66868 -8.78153
HEad  -52.8124 -4.26799 2.63182
LeftShoulder1  -0.225268 -28.1004 10.4206
LeftArm  -77.7538 -64.2884 42.1751
LeftForeArm  53.3083 -1.57827 -1.17941
LeftHand  -0.244104 0.0205437 5.32207
RightShoulder  0.47987 13.4214 -6.36092
RightArm  -67.518 62.5349 -32.9177
RightForeArm  21.3659 1.68921 2.52568
RightHand  -4.52353 12.3362 -29.316
LeftUpLeg  -49.155 14.4938 -21.0421
LeftLeg  60.7921 8.4606 16.4983
LeftFoot  -28.1133 -0.38723 -3.85781
LeftToes  -1.10052e-010 1.3781e-010 -2.1811e-011
1159
root  -19.0213 34.8381 -3.48644 -70.3957 -88.0496 96.7017
RightUpLeg  -74.5374 -18.478 31.2561
RightLeg  33.7074 -2.99154 -2.51229
RightFoot  -1.4576 1.17647 -13.8877
RightToes  2.91037e-010 0 -3.6325e-017
Spine  71.4812 -4.42898 9.21243
Spine1  11.6512 4.62095 -9.27159
HEad  -51.0206 -4.85349 2.14203
LeftShoulder1  0.425386 -29.1888 8.14588
LeftArm  -75.5522 -65.23 40.6184
LeftForeArm  54.1845 -1.94199 -2.02593
LeftHand  -0.244104 0.0205437 5.32207
RightShoulder  0.447092 13.2498 -6.55423
RightArm  -63.8215 62.7778 -29.0461
RightForeArm  21.9413 1.84505 2.78048
RightHand  -4.75398 12.8926 -29.8515
LeftUpLeg  -49.1789 16.6491 -20.5337
LeftLeg  65.8342 5.89518 14.7813
LeftFoot  -22.4143 -0.487671 -6.39744
LeftToes  -1.10052e-010 1.3781e-010 -2.1811e-011
1160
root  -20.4687 34.6165 -3.31911 -68.9666 -88.9314 94.2619
RightUpLeg  -73.4151 -15.3797 26.1165
RightLeg  40.7851 -7.95923 -7.54374
RightFoot  -3.47256 1.27108 -18.473
RightToes  2.91037e-010 0 -3.6325e-017
Spine  71.3307 -4.56825 10.5492
Spine1  10.3709 4.93638 -8.96018
HEad  -50.3354 -5.57312 0.614963
LeftShoulder1  1.35609 -30.2941 5.07405
LeftArm  -74.5065 -65.8305 40.3456
LeftForeArm  54.7702 -1.60589 -2.62385
LeftHand  -0.244104 0.0205437 5.32207
RightShoulder  0.357756 13.1242 -7.14343
RightArm  -62.1344 62.7954 -26.428
RightForeArm  24.2705 2.46093 2.57066
RightHand  -4.47624 12.3102 -29.0529
LeftUpLeg  -51.1609 18.0136 -17.7591
LeftLeg  73.3201 2.90952 11.8133
LeftFoot  -11.206 0.0307663 -5.19885
LeftToes  -1.10052e-010 1.3781e-010 -2.1811e-011
1161
root  -21.8022 34.3551 -3.12858 165.921 -88.9523 -141.281
RightUpLeg  -73.2018 -14.7059 25.4214
RightLeg  46.9176 -8.29707 -9.67873
RightFoot  -6.54024 0.637184 -15.9576
RightToes  2.91037e-010 0 -3.6325e-017
Spine  70.8843 -4.50645 12.137
Spine1  9.87349 5.07171 -7.77235
HEad  -50.4302 -5.52544 0.040981
LeftShoulder1  1.88706 -31.0175 3.44019
LeftArm  -74.2176 -65.6136 40.5786
LeftForeArm  54.5265 -0.620212 -2.66318
LeftHand  -0.244104 0.0205437 5.32207
RightShoulder  0.351402 13.5618 -7.25367
RightArm  -63.3096 62.5453 -27.0432
RightForeArm  26.8597 3.2855 2.19486
RightHand  -3.7123 10.5652 -26.8475
LeftUpLeg  -54.5969 17.8036 -13.4211
LeftLeg  80.5848 0.633315 6.9007
LeftFoot  -0.109294 0.162958 -1.52475
LeftToes  -1.10052e-010 1.3781e-010 -2.1811e-011
1162
root  -23.1007 34.282 -2.95797 129.935 -88.0127 -105.072
RightUpLeg  -72.7687 -15.1312 25.7499
RightLeg  50.2949 -7.29865 -9.70015
RightFoot  -9.52124 0.140834 -13.1729
RightToes  2.91037e-010 0 -3.6325e-017
Spine  70.6821 -4.14589 12.8042
Spine1  9.2325 4.91332 -6.8425
HEad  -50.1015 -5.29933 0.857153
LeftShoulder1  2.00876 -31.5774 3.1545
LeftArm  -73.844 -65.4567 40.2827
LeftForeArm  54.182 0.32045 -2.55948
LeftHand  -0.244104 0.0205437 5.32207
RightShoulder  0.418356 14.3263 -6.92067
RightArm  -64.0368 62.187 -28.4052
RightForeArm  28.1501 3.27615 2.13281
RightHand  -3.10075 9.11181 -24.7907
LeftUpLeg  -58.3723 16.3102 -9.70398
LeftLeg  85.2713 -0.133031 3.43682
LeftFoot  3.34423 -0.130847 0.963514
LeftToes  -1.10052e-010 1.3781e-010 -2.1811e-011
1163
root  -24.4067 34.5241 -2.79702 153.957 -88.2413 -128.277
RightUpLeg  -71.8828 -15.496 24.194
RightLeg  51.7997 -7.14464 -10.0255
RightFoot  -11.834 -0.1334 -12.2571
RightToes  2.91037e-010 0 -3.6325e-017
Spine  71.017 -3.76107 12.1398
Spine1  7.944 4.87329 -6.95284
HEad  -49.3362 -5.94541 1.49852
LeftShoulder1  1.93645 -31.9008 3.43775
LeftArm  -74.2894 -65.9552 40.1804
LeftForeArm  54.3626 0.591428 -2.50152
LeftHand  -0.244104 0.0205437 5.32207
RightShoulder  0.387777 14.4363 -7.13181
RightArm  -63.2083 61.7388 -28.7312
RightForeArm  28.1747 2.23818 2.25363
RightHand  -2.87431 8.6077 -23.8368
LeftUpLeg  -62.1332 14.6731 -7.83961
LeftLeg  86.3051 -0.134377 4.20618
LeftFoot  -0.153951 -0.200422 2.04849
LeftToes  -1.10052e-010 1.3781e-010 -2.1811e-011
